# xmcd
#
# Track frame offsets:
#	150
#	14454
#	27987
#	41481
#	58351
#	71193
#	87139
#	102085
#	117304
#	131422
#	143821
#	161500
#	178647
#	193734
#
# Disc length: 2768 seconds
#
# Revision: 1
# Processed by: cddbd v1.5.2PL0 Copyright (c) Steve Scherf et al.
# Submitted via: audiograbber 1.83.01
#
DISCID=c40ace0e
DTITLE=Vlado Kumpan - Herzig
DYEAR=2015
DGENRE=Blasmusik
TTITLE0=Jezovska (Polka)
TTITLE1=Kari (Polka)
TTITLE2=Mirkovi (Polka)
TTITLE3=Herzig (Walzer)
TTITLE4=Kulhava (Polka)
TTITLE5=The Rose (Slowrock)
TTITLE6=Türkischer Marsch
TTITLE7=Zlat'ulka (Polka)
TTITLE8=Opa Polka
TTITLE9=Für Ondra (Walzer)
TTITLE10=Sofinka (Polka)
TTITLE11=Ranicko (Polka)
TTITLE12=Frankodvorska (Polka)
TTITLE13=Lhanicka (Polka)
EXTD=
EXTT0=
EXTT1=
EXTT2=
EXTT3=
EXTT4=
EXTT5=
EXTT6=
EXTT7=
EXTT8=
EXTT9=
EXTT10=
EXTT11=
EXTT12=
EXTT13=
PLAYORDER=
